<svg width="127" height="28" viewBox="0 0 127 28" fill="none" xmlns="http://www.w3.org/2000/svg">
<path d="M112.998 17.3999C112.988 17.5007 112.946 17.5957 112.877 17.6709C112.808 17.7462 112.717 17.7976 112.616 17.8178C112.558 17.8272 112.499 17.8314 112.44 17.8303C111.767 17.8303 111.092 17.8303 110.419 17.8303C110.285 17.8373 110.152 17.8083 110.034 17.7465C109.916 17.6847 109.817 17.5923 109.748 17.4793C109.049 16.4431 108.353 15.4061 107.661 14.3685C107.638 14.3185 107.598 14.2775 107.549 14.2518C107.499 14.2261 107.442 14.2172 107.387 14.2264C107.275 14.241 107.124 14.1804 107.058 14.2494C106.992 14.3183 107.041 14.4583 107.041 14.5628C107.041 15.4681 107.041 16.3734 107.041 17.2788C107.049 17.3542 107.04 17.4304 107.016 17.5023C106.992 17.5743 106.953 17.6405 106.901 17.6966C106.856 17.7431 106.801 17.7795 106.74 17.8037C106.679 17.8278 106.614 17.839 106.549 17.8366H104.693C104.626 17.8396 104.559 17.8288 104.497 17.8048C104.435 17.7808 104.378 17.7442 104.331 17.6973C104.284 17.6504 104.248 17.5943 104.224 17.5326C104.2 17.471 104.19 17.4051 104.194 17.3394V11.0299C104.194 9.21437 104.194 7.39884 104.194 5.5833C104.19 5.51304 104.201 5.44276 104.226 5.37688C104.252 5.311 104.29 5.25096 104.34 5.20052C104.39 5.15008 104.45 5.11035 104.516 5.08382C104.582 5.05729 104.653 5.04454 104.725 5.04637C105.326 5.04637 105.929 5.04637 106.529 5.04637C106.599 5.04103 106.668 5.05049 106.733 5.07412C106.798 5.09774 106.857 5.13496 106.906 5.18322C106.955 5.23147 106.993 5.2896 107.017 5.35362C107.041 5.41764 107.051 5.48602 107.045 5.55405C107.045 5.62926 107.045 5.70447 107.045 5.77968C107.045 7.78394 107.045 9.78751 107.045 11.7904C107.045 11.8948 107.067 11.9178 107.179 11.9304C107.287 11.9463 107.398 11.9285 107.496 11.8794C107.593 11.8303 107.672 11.7524 107.723 11.6567C108.321 10.821 108.941 9.98529 109.553 9.1496C109.617 9.05854 109.704 8.98483 109.805 8.9352C109.905 8.88557 110.017 8.8616 110.13 8.86547C110.79 8.86547 111.451 8.86547 112.113 8.86547C112.201 8.85583 112.291 8.8722 112.37 8.91251C112.449 8.95282 112.514 9.01525 112.557 9.09194C112.6 9.16862 112.619 9.2561 112.611 9.34334C112.603 9.43058 112.57 9.51365 112.514 9.58207C112.384 9.78069 112.242 9.97181 112.09 10.1545C111.41 11.0264 110.729 11.8969 110.047 12.766C110.035 12.7775 110.026 12.7913 110.019 12.8066C110.012 12.8219 110.009 12.8383 110.009 12.8548C110.009 12.8714 110.012 12.8878 110.019 12.9031C110.026 12.9183 110.035 12.9321 110.047 12.9436L112.852 16.9361C112.924 17.0466 112.98 17.167 113.017 17.2934L112.998 17.3999Z" fill="#071C32"/>
<path d="M60.9629 21.9766C60.9618 21.9835 60.9618 21.9906 60.9629 21.9975H60.3005C60.2983 21.9907 60.2983 21.9834 60.3005 21.9766C60.3109 21.9637 60.3241 21.9534 60.3392 21.9465C60.3544 21.9396 60.3709 21.9364 60.3876 21.9369C60.5509 21.9286 60.7146 21.9286 60.878 21.9369C60.8943 21.9365 60.9105 21.9399 60.9253 21.9468C60.94 21.9537 60.9529 21.9639 60.9629 21.9766Z" fill="#7E7F8C"/>
<path d="M46.3333 12.3328C46.244 11.7537 46.0378 11.1979 45.7267 10.6985C45.4157 10.199 45.0062 9.76586 44.5224 9.42463C43.7041 8.84053 42.7029 8.55871 41.6945 8.62864C41.2115 8.64528 40.7372 8.76054 40.3018 8.96709C39.9648 9.12836 39.6594 9.3469 39.3995 9.61266V9.35569C39.4015 9.29399 39.391 9.2325 39.3686 9.17483C39.3463 9.11715 39.3125 9.06443 39.2692 9.01972C39.226 8.97501 39.1741 8.93921 39.1167 8.9144C39.0592 8.88958 38.9973 8.87624 38.9346 8.87517C38.2977 8.87517 37.682 8.87517 37.0536 8.87517C36.9789 8.87654 36.9056 8.89639 36.8407 8.9329C36.7758 8.96941 36.7213 9.0214 36.6821 9.08409C36.6087 9.19646 36.5738 9.32894 36.5823 9.46224V21.2225C36.5799 21.2905 36.5923 21.3582 36.6185 21.4211C36.6447 21.4841 36.6842 21.5408 36.7344 21.5877C36.7846 21.6345 36.8443 21.6703 36.9095 21.6927C36.9748 21.7151 37.0442 21.7236 37.1131 21.7176H38.8688C38.947 21.7286 39.0268 21.7214 39.1017 21.6966C39.1766 21.6719 39.2446 21.6302 39.3003 21.575C39.356 21.5198 39.3978 21.4526 39.4224 21.3787C39.447 21.3048 39.4537 21.2263 39.442 21.1493V17.2112C39.6007 17.3775 39.7848 17.5185 39.9876 17.629C40.8199 18.0565 41.7749 18.1935 42.6966 18.0176C43.3797 17.9114 44.0264 17.6435 44.5811 17.237C45.1358 16.8305 45.5819 16.2976 45.8811 15.6839C46.4091 14.6483 46.5683 13.4682 46.3333 12.3328ZM42.7242 15.0739C42.4543 15.2712 42.1395 15.4007 41.8073 15.4512C41.475 15.5017 41.1352 15.4715 40.8174 15.3635C40.4997 15.2554 40.2135 15.0726 39.9838 14.831C39.7541 14.5894 39.5878 14.2963 39.4993 13.977C39.4147 13.708 39.3854 13.425 39.4131 13.1446C39.4408 12.8642 39.525 12.5921 39.6608 12.3441C39.7966 12.0961 39.9812 11.8773 40.2039 11.7003C40.4266 11.5233 40.6829 11.3917 40.9578 11.3133C41.1309 11.2637 41.3105 11.2398 41.4907 11.2423C42.0058 11.2447 42.5017 11.4355 42.8819 11.7775C43.2621 12.1196 43.4994 12.5886 43.5479 13.0933C43.603 13.4662 43.5551 13.8467 43.4095 14.1952C43.2638 14.5436 43.0257 14.8471 42.7199 15.0739H42.7242Z" fill="#071C32"/>
<path d="M60.9631 21.9766H60.2965C59.5277 21.9486 58.7828 21.7066 58.148 21.2788C58.0588 21.2162 57.9718 21.1472 57.889 21.0699C57.8296 21.0307 57.7787 20.9802 57.7393 20.9214C57.6998 20.8627 57.6726 20.7968 57.6592 20.7277C57.6458 20.6585 57.6464 20.5874 57.6611 20.5185C57.6757 20.4496 57.7041 20.3842 57.7446 20.3262C57.9857 19.9306 58.2509 19.5496 58.5386 19.1854C58.6201 19.0867 58.7343 19.0192 58.8611 18.9948C58.988 18.9703 59.1196 18.9905 59.2329 19.0517C59.3148 19.0851 59.3925 19.1279 59.4643 19.1792C59.6993 19.3508 59.9695 19.4699 60.2562 19.5281C60.4579 19.5699 60.6678 19.5498 60.8576 19.4706C61.0474 19.3914 61.2079 19.2569 61.3177 19.0852C61.5576 18.6966 61.6446 18.2495 61.8272 17.817H60.8018C60.6465 17.836 60.4897 17.797 60.3623 17.7076C60.2349 17.6182 60.1462 17.485 60.1139 17.3344L59.6745 16.0245L57.5408 9.70038C57.4931 9.57706 57.47 9.44581 57.4729 9.31387C57.4729 9.20305 57.5176 9.09677 57.5973 9.01841C57.6769 8.94005 57.7849 8.89603 57.8975 8.89603C58.0886 8.88349 58.2796 8.89603 58.4686 8.88559H60.0715C60.1423 8.87438 60.2147 8.8773 60.2843 8.89418C60.354 8.91106 60.4195 8.94155 60.4769 8.98385C60.5344 9.02615 60.5826 9.07938 60.6187 9.14038C60.6548 9.20138 60.6781 9.26891 60.6871 9.33894L61.6488 12.5731C61.8611 13.3085 62.0883 14.0355 62.3027 14.7814C62.3047 14.799 62.3104 14.816 62.3195 14.8314C62.3286 14.8467 62.3408 14.86 62.3554 14.8704C62.3699 14.8809 62.3866 14.8882 62.4042 14.8919C62.4218 14.8956 62.4401 14.8957 62.4577 14.8921C62.6955 14.8921 62.6976 14.8921 62.7571 14.6832C63.2453 12.9143 63.7329 11.1454 64.2198 9.37655C64.2466 9.23272 64.3265 9.10371 64.444 9.01426C64.5615 8.9248 64.7085 8.88121 64.8567 8.89185H66.8672C67.2069 8.89185 67.364 9.01929 67.3916 9.32014C67.3954 9.43199 67.3766 9.54348 67.3364 9.64815C67.0278 10.6231 66.7193 11.5981 66.4108 12.5731C65.7031 14.8016 64.9989 17.0301 64.2984 19.2586C64.0758 20.0049 63.6465 20.6755 63.0585 21.1953C62.5605 21.6209 61.9432 21.8882 61.2879 21.962C61.1754 21.9599 61.0693 21.9662 60.9631 21.9766Z" fill="#071C32"/>
<path d="M93.432 9.31473C93.4251 9.19439 93.3722 9.08106 93.2841 8.99739C93.1959 8.91373 93.0789 8.8659 92.9564 8.86346C92.3344 8.86346 91.7102 8.86346 91.0882 8.86346C90.9598 8.8662 90.8377 8.91861 90.7483 9.00933C90.6589 9.10005 90.6094 9.22178 90.6105 9.34816C90.6105 9.41083 90.6105 9.4756 90.6105 9.55708C90.4631 9.39813 90.2962 9.25778 90.1137 9.13924C89.7112 8.89089 89.2629 8.72318 88.7944 8.64574C88.3258 8.5683 87.8464 8.58265 87.3835 8.68796C85.7043 8.99508 84.5557 9.96657 83.9188 11.5147C83.5934 12.3436 83.4988 13.243 83.6449 14.1199C83.7741 15.1183 84.2336 16.0471 84.9527 16.7628C85.4006 17.2233 85.9473 17.5797 86.553 17.806C87.1586 18.0322 87.8079 18.1227 88.4535 18.0707C89.0052 18.0469 89.5419 17.8867 90.0139 17.6048C90.2343 17.4724 90.4351 17.3107 90.6105 17.1242C90.6105 17.212 90.6105 17.2684 90.6105 17.3332C90.6057 17.4008 90.6158 17.4686 90.6401 17.532C90.6644 17.5954 90.7023 17.6529 90.7514 17.7006C90.8004 17.7482 90.8592 17.7848 90.924 17.808C90.9887 17.8311 91.0578 17.8402 91.1264 17.8346H92.9267C92.9816 17.8381 93.0368 17.8332 93.0902 17.82C93.2049 17.7858 93.3035 17.7126 93.3685 17.6135C93.4334 17.5144 93.4604 17.3958 93.4447 17.2788V9.45889C93.4441 9.41059 93.4399 9.3624 93.432 9.31473ZM89.6721 15.1207C89.3901 15.3079 89.0649 15.4228 88.7262 15.4548C88.3875 15.4867 88.046 15.4349 87.7329 15.3039C87.4198 15.1728 87.145 14.9668 86.9334 14.7046C86.7218 14.4423 86.5803 14.1322 86.5216 13.8024C86.4477 13.4827 86.4496 13.1505 86.5273 12.8316C86.605 12.5128 86.7563 12.2158 86.9696 11.9639C87.1598 11.7318 87.4013 11.5454 87.6758 11.4191C87.9502 11.2927 88.2504 11.2297 88.5533 11.2347C89.0372 11.24 89.5038 11.4126 89.8714 11.7224C90.239 12.0322 90.4841 12.4593 90.5638 12.9291C90.7039 13.8358 90.4492 14.5984 89.6721 15.129V15.1207Z" fill="#071C32"/>
<path d="M56.3351 8.86929C55.8107 8.86929 55.2842 8.8881 54.7598 8.86929C54.2354 8.85049 54.0295 9.06777 54.0592 9.56082C53.9573 9.4689 53.8745 9.38742 53.7832 9.3143C53.6924 9.23856 53.5967 9.16876 53.4966 9.10538C52.65 8.6158 51.6406 8.47679 50.69 8.71887C49.0553 9.06986 47.9535 10.0539 47.3548 11.5769C47.0317 12.4273 46.9516 13.3486 47.1234 14.2407C47.3005 15.379 47.9069 16.4099 48.8218 17.128C49.5148 17.6843 50.3683 18.0118 51.2611 18.064C51.9216 18.1279 52.5875 18.0183 53.1909 17.7464C53.5161 17.5923 53.8092 17.3797 54.055 17.1196V17.2909C54.0482 17.3619 54.0577 17.4335 54.0825 17.5004C54.1073 17.5674 54.147 17.628 54.1986 17.678C54.2503 17.728 54.3125 17.7661 54.381 17.7895C54.4494 17.8129 54.5222 17.821 54.5942 17.8133H56.3478C56.421 17.8226 56.4954 17.8152 56.5651 17.7917C56.6349 17.7682 56.6983 17.7291 56.7502 17.6776C56.8022 17.626 56.8414 17.5634 56.8648 17.4945C56.8881 17.4257 56.895 17.3524 56.8849 17.2805V9.41876C56.8936 9.34527 56.8853 9.27083 56.8609 9.20088C56.8364 9.13093 56.7964 9.06726 56.7436 9.01456C56.6909 8.96185 56.6268 8.92144 56.5561 8.89631C56.4854 8.87117 56.4099 8.86194 56.3351 8.86929ZM52.917 15.2581C52.6656 15.3908 52.3869 15.4658 52.1018 15.4775C51.5994 15.4897 51.109 15.3246 50.7196 15.0118C50.3302 14.6991 50.0674 14.2596 49.9788 13.7727C49.9096 13.4524 49.9167 13.1206 49.9996 12.8035C50.0824 12.4863 50.2388 12.1923 50.4565 11.9446C50.6916 11.6592 51.005 11.4462 51.3596 11.331C51.7141 11.2158 52.0948 11.2033 52.4564 11.2949C52.8301 11.3699 53.1738 11.5497 53.4461 11.8125C53.7184 12.0753 53.9077 12.4099 53.9913 12.7761C54.1286 13.2483 54.0968 13.7526 53.9013 14.2045C53.7057 14.6564 53.3582 15.0284 52.917 15.2581Z" fill="#071C32"/>
<path d="M71.5458 8.62646C72.2275 8.60657 72.9073 8.7085 73.552 8.92731C74.1139 9.11693 74.6387 9.39955 75.1039 9.763C75.1775 9.8117 75.2391 9.87599 75.2842 9.95116C75.3292 10.0263 75.3567 10.1105 75.3644 10.1974C75.3721 10.2843 75.36 10.3719 75.3289 10.4536C75.2978 10.5353 75.2485 10.6092 75.1846 10.6697C74.9525 10.9413 74.7154 11.2073 74.4734 11.4678C74.2123 11.7478 73.8896 11.7812 73.5202 11.566C73.2117 11.3773 72.8895 11.2111 72.5563 11.0688C72.0664 10.8549 71.5203 10.7986 70.9959 10.9079C70.8452 10.9414 70.706 11.0135 70.5926 11.1168C70.5459 11.1517 70.5081 11.1967 70.4821 11.2484C70.4561 11.3 70.4425 11.3569 70.4425 11.4145C70.4425 11.4722 70.4561 11.529 70.4821 11.5807C70.5081 11.6323 70.5459 11.6774 70.5926 11.7122C70.795 11.8639 71.0344 11.9604 71.2868 11.9922C71.9492 12.1301 72.6179 12.2241 73.2718 12.3954C73.864 12.5262 74.4126 12.803 74.8662 13.1998C75.099 13.4101 75.2863 13.6645 75.4169 13.9478C75.5475 14.231 75.6187 14.5372 75.6262 14.8482C75.6729 16.1894 74.9893 17.0753 73.7962 17.6352C73.1571 17.9225 72.4648 18.0775 71.7623 18.0906C70.6202 18.1503 69.4835 17.8979 68.4781 17.3615C68.1539 17.1975 67.8603 16.9807 67.6097 16.7201C67.5234 16.6433 67.4564 16.5478 67.4142 16.441C67.3719 16.3343 67.3557 16.2193 67.3666 16.1052C67.3775 15.9912 67.4154 15.8813 67.4771 15.7842C67.5389 15.6871 67.6228 15.6055 67.7223 15.546C67.96 15.3663 68.1999 15.1887 68.4356 15.0049C68.8347 14.6977 69.098 14.7165 69.4971 15.0341C69.8449 15.3259 70.2385 15.5601 70.6626 15.7277C71.1367 15.9081 71.6561 15.9388 72.1487 15.8155C72.3226 15.7724 72.4771 15.674 72.5882 15.5355C72.6317 15.487 72.6632 15.4292 72.6802 15.3667C72.6971 15.3042 72.6991 15.2386 72.6859 15.1752C72.6727 15.1118 72.6448 15.0523 72.6043 15.0013C72.5637 14.9504 72.5117 14.9094 72.4523 14.8816C72.146 14.7416 71.8217 14.6432 71.4885 14.5891C70.8176 14.4408 70.134 14.3468 69.478 14.1357C68.9012 13.9687 68.3919 13.6283 68.0216 13.1622C67.6537 12.6669 67.4851 12.0552 67.5482 11.4448C67.6182 10.3731 68.2169 9.64183 69.1468 9.14668C69.8024 8.8113 70.5309 8.6371 71.2698 8.639L71.5458 8.62646Z" fill="#071C32"/>
<path d="M99.1896 8.62251C100.06 8.60186 100.921 8.80799 101.684 9.22002C102.312 9.56321 102.849 10.047 103.251 10.6323C103.3 10.6991 103.335 10.7748 103.354 10.8549C103.373 10.9351 103.376 11.0182 103.363 11.0995C103.35 11.1808 103.32 11.2587 103.276 11.3287C103.232 11.3988 103.174 11.4596 103.107 11.5077C102.723 11.8002 102.335 12.0885 101.943 12.3727C101.682 12.5628 101.4 12.5252 101.134 12.2682C100.943 12.0823 100.769 11.8775 100.559 11.7062C100.282 11.4662 99.9427 11.3077 99.5789 11.2489C99.215 11.1902 98.8417 11.2335 98.5017 11.374C98.1484 11.4929 97.8376 11.7098 97.6067 11.9986C97.3758 12.2873 97.2347 12.6356 97.2003 13.0015C97.1353 13.3575 97.1625 13.7238 97.2794 14.0667C97.3962 14.4096 97.5991 14.7179 97.8691 14.9633C98.2622 15.2953 98.7664 15.4722 99.2844 15.4599C99.8023 15.4475 100.297 15.2468 100.674 14.8964C100.79 14.7815 100.911 14.6708 101.017 14.5455C101.053 14.5039 101.091 14.4648 101.132 14.4285C101.448 14.1422 101.69 14.1318 102.034 14.3867C102.378 14.6416 102.705 14.8818 103.036 15.1325C103.156 15.2051 103.251 15.3116 103.308 15.4379C103.365 15.5643 103.382 15.7047 103.357 15.8408C103.337 15.9215 103.301 15.9975 103.251 16.0643C102.917 16.5551 102.487 16.9759 101.987 17.3022C101.487 17.6286 100.925 17.854 100.336 17.9655C99.2334 18.2122 98.0787 18.0909 97.0538 17.6208C95.5847 16.9313 94.6548 15.8052 94.3682 14.23C94.2132 13.4971 94.243 12.7379 94.4551 12.019C94.6671 11.3 95.055 10.6432 95.5847 10.1059C96.2953 9.3634 97.2333 8.87029 98.2555 8.7019C98.5636 8.64629 98.8764 8.6197 99.1896 8.62251Z" fill="#071C32"/>
<path d="M77.5461 13.4928C77.5461 12.6968 77.5461 12.0428 77.5461 11.3889C77.5461 11.2928 77.5227 11.2636 77.4208 11.2656C77.1045 11.2656 76.7839 11.2656 76.4676 11.2656C76.3417 11.2609 76.2226 11.2088 76.1345 11.1202C76.0464 11.0316 75.9962 10.9132 75.9941 10.7893C75.9941 10.315 75.9941 9.8387 75.9941 9.36445C75.9947 9.30089 76.008 9.23807 76.0333 9.17959C76.0586 9.12111 76.0954 9.06812 76.1415 9.02367C76.1877 8.97921 76.2423 8.94417 76.3023 8.92055C76.3622 8.89692 76.4263 8.88519 76.4909 8.88602C76.8009 8.88602 77.1108 8.88602 77.4187 8.88602C77.5163 8.88602 77.5482 8.86721 77.5461 8.76484C77.5461 8.08167 77.5461 7.39849 77.5461 6.71532C77.5391 6.64238 77.5487 6.56883 77.574 6.49995C77.5993 6.43106 77.6398 6.36853 77.6926 6.31684C77.7453 6.26514 77.809 6.22554 77.8791 6.20088C77.9492 6.17623 78.024 6.16712 78.098 6.17421H79.8792C79.9512 6.16784 80.0237 6.17708 80.0917 6.20125C80.1597 6.22543 80.2214 6.26397 80.2726 6.31415C80.3238 6.36434 80.3632 6.42495 80.388 6.49173C80.4129 6.55851 80.4226 6.62984 80.4164 6.70069C80.4164 7.38804 80.4164 8.0754 80.4164 8.76275C80.4164 8.85886 80.4397 8.88811 80.5416 8.88602C81.2783 8.88602 82.0171 8.88602 82.7538 8.88602C82.8332 8.87672 82.9137 8.8852 82.9893 8.91082C83.065 8.93645 83.1337 8.97856 83.1905 9.03401C83.2472 9.08946 83.2905 9.1568 83.3171 9.23103C83.3437 9.30525 83.3529 9.38443 83.344 9.46264V10.6869C83.3503 10.7658 83.3387 10.845 83.31 10.9189C83.2813 10.9928 83.2362 11.0594 83.1781 11.1141C83.12 11.1687 83.0502 11.2099 82.9739 11.2346C82.8975 11.2594 82.8166 11.2671 82.7368 11.2573C82.0129 11.2573 81.2868 11.2573 80.5629 11.2573C80.4312 11.2573 80.4057 11.2907 80.4057 11.414C80.4057 12.4774 80.4057 13.5387 80.4057 14.6C80.3927 14.7655 80.4351 14.9306 80.5263 15.0702C80.6175 15.2097 80.7526 15.3161 80.911 15.3731C81.1511 15.4324 81.4042 15.414 81.6328 15.3208C81.7547 15.2741 81.8713 15.2153 81.981 15.1453C82.1259 15.0482 82.3018 15.0066 82.4757 15.0283C82.5452 15.0387 82.6116 15.0641 82.67 15.1028C82.7284 15.1414 82.7773 15.1924 82.8132 15.2519C83.0446 15.6091 83.2782 15.9643 83.5011 16.3278C83.5754 16.4486 83.604 16.5913 83.5818 16.7308C83.5597 16.8703 83.4883 16.9976 83.3801 17.0904C82.9927 17.4661 82.5093 17.7317 81.981 17.8592C81.0994 18.1227 80.1542 18.0933 79.2912 17.7757C78.8081 17.6099 78.3858 17.3068 78.0778 16.9048C77.7698 16.5028 77.5899 16.0199 77.5609 15.5172C77.4994 14.7902 77.5652 14.0652 77.5461 13.4928Z" fill="#071C32"/>
<path d="M22.8208 13.7018C20.5195 13.7018 18.2181 13.7018 15.9168 13.7018C15.724 13.7078 15.5348 13.649 15.3804 13.5351C15.2261 13.4212 15.1157 13.2589 15.0676 13.0751C15.0564 13.0179 15.0514 12.9598 15.0527 12.9017C15.0527 12.4337 15.0655 11.9678 15.0527 11.5019C15.0472 11.3896 15.0652 11.2774 15.1056 11.1723C15.146 11.0672 15.2079 10.9713 15.2876 10.8908C15.3672 10.8102 15.4629 10.7467 15.5686 10.7041C15.6743 10.6615 15.7878 10.6408 15.9019 10.6432H29.7227C29.8803 10.6336 30.0375 10.6674 30.1766 10.7409C30.3157 10.8143 30.4313 10.9245 30.5103 11.059C30.581 11.1728 30.6185 11.3037 30.6186 11.4371C30.6186 11.9364 30.6186 12.4378 30.6186 12.9372C30.6137 13.1331 30.5346 13.3202 30.3967 13.4617C30.2588 13.6032 30.0722 13.6889 29.8734 13.7018C29.814 13.7018 29.7545 13.7018 29.6951 13.7018H22.8208Z" fill="#20C3F3"/>
<path d="M22.4195 17.7024C20.2498 17.7024 18.0801 17.7024 15.9104 17.7024C15.7958 17.7047 15.6819 17.6841 15.5757 17.642C15.4694 17.5998 15.3729 17.5369 15.2919 17.4571C15.211 17.3772 15.1473 17.2821 15.1048 17.1774C15.0622 17.0727 15.0416 16.9606 15.0442 16.8479C15.0696 16.3904 15.0442 15.9307 15.0442 15.4732C15.0416 15.3661 15.0609 15.2596 15.1008 15.1599C15.1408 15.0603 15.2006 14.9695 15.2768 14.893C15.353 14.8164 15.444 14.7557 15.5444 14.7143C15.6448 14.673 15.7527 14.6518 15.8615 14.6521H15.938C20.2604 14.6521 24.5828 14.6521 28.9053 14.6521C29.0243 14.6472 29.1431 14.6665 29.2541 14.7088C29.3652 14.7512 29.4662 14.8157 29.5507 14.8983C29.6352 14.9809 29.7015 15.0798 29.7453 15.1888C29.7892 15.2978 29.8096 15.4145 29.8054 15.5317C29.7863 15.9809 29.8054 16.4301 29.8054 16.8813C29.8104 16.9918 29.7917 17.1021 29.7506 17.205C29.7095 17.3079 29.6469 17.4012 29.5668 17.4788C29.4868 17.5564 29.3911 17.6166 29.2859 17.6554C29.1807 17.6943 29.0684 17.711 28.9562 17.7045L22.4195 17.7024Z" fill="#20C3F3"/>
<path d="M22.4282 9.70676C20.2584 9.70676 18.0887 9.70676 15.919 9.70676C15.8032 9.71024 15.6879 9.69034 15.5802 9.64832C15.4724 9.60629 15.3746 9.54302 15.2927 9.46239C15.2107 9.38175 15.1464 9.28547 15.1037 9.17947C15.061 9.07346 15.0408 8.95998 15.0443 8.84601C15.0677 8.4006 15.0677 7.9543 15.0443 7.5089C15.0423 7.39615 15.0635 7.28416 15.1066 7.17968C15.1497 7.07519 15.2138 6.98037 15.2951 6.90093C15.3765 6.82148 15.4733 6.75906 15.5798 6.71741C15.6863 6.67576 15.8002 6.65575 15.9148 6.65859C18.7469 6.67113 21.5768 6.65859 24.4068 6.65859C25.9162 6.65859 27.4236 6.65859 28.933 6.65859C29.0489 6.65512 29.1642 6.675 29.2719 6.71703C29.3796 6.75906 29.4775 6.82234 29.5594 6.90297C29.6413 6.9836 29.7056 7.07988 29.7483 7.18588C29.791 7.29189 29.8112 7.40537 29.8077 7.51935C29.7886 7.96017 29.7886 8.40309 29.8077 8.84391C29.8115 8.95788 29.7916 9.07142 29.7492 9.17752C29.7067 9.28363 29.6426 9.38006 29.5609 9.46089C29.4792 9.54172 29.3815 9.60523 29.2739 9.64751C29.1663 9.6898 29.051 9.70996 28.9352 9.70676C26.7676 9.7005 24.5979 9.70676 22.4282 9.70676Z" fill="#20C3F3"/>
<path d="M19.5454 21.6968H15.8726C15.7646 21.6999 15.657 21.6814 15.5565 21.6424C15.4559 21.6034 15.3644 21.5448 15.2876 21.4699C15.2108 21.3951 15.1502 21.3057 15.1095 21.2072C15.0689 21.1086 15.0489 21.003 15.051 20.8966C15.051 20.4175 15.051 19.9384 15.051 19.4592C15.0484 19.3532 15.0676 19.2476 15.1073 19.149C15.1469 19.0503 15.2064 18.9605 15.282 18.8849C15.3577 18.8093 15.448 18.7494 15.5476 18.7088C15.6473 18.6682 15.7542 18.6477 15.862 18.6486H23.2394C23.3476 18.6464 23.4551 18.6656 23.5556 18.7052C23.656 18.7447 23.7473 18.8038 23.824 18.8789C23.9007 18.954 23.9612 19.0435 24.002 19.1422C24.0427 19.2408 24.0628 19.3465 24.061 19.453C24.061 19.9377 24.061 20.421 24.061 20.9029C24.0622 21.0082 24.0418 21.1126 24.0012 21.21C23.9605 21.3074 23.9004 21.3957 23.8243 21.4698C23.7483 21.5439 23.6579 21.6021 23.5585 21.6411C23.4591 21.6801 23.3528 21.699 23.2458 21.6968H19.5454Z" fill="#21C3F3"/>
</svg>
